<svg xmlns="http://www.w3.org/2000/svg" viewBox="0 0 771.6 560"><path d="M771.6 560H0V0h771.6v560zM17.3 112.3l-17.3.9C-.7 137.3 12.3 153 33.9 153c19.1 0 34.5-13 38.7-32.3 8.8-42.1-43-55.2-36-86.9 1.8-8 7.9-13 15.8-13 10.1 0 15.1 7.8 14.4 20.2l17.1-.9C85.7 17.8 73.7 4 52.8 4c-17.1 0-30.3 9.9-34.6 26.1C7.1 72.5 61.6 86 53.3 119.3c-2.5 10.1-9.7 16.9-17.8 16.9-11.2 0-17.8-9.3-18.2-23.9zm82.7 39 10.8-76.1c2.7-11.4 8.7-19.3 16.4-19.3 7.9 0 11 6.5 9.2 19.1l-11 76.3h17.7l10.6-75.4c2.6-11.7 8.7-20 16.6-20s11 6.5 9.2 19.1l-11 76.3h17.6l11.2-79.2c3.4-23.9-6.8-32.4-19.8-32.4-8.1 0-16.9 4.5-23.2 16.5-2.2-12.1-10.3-16.6-19.8-16.6-7 0-14.8 3.4-20.7 12.4l.9-10.6H98.3L82.7 151.2l17.3.1zm123.3-.1 15.5-109.8h-17.5l-15.5 109.8h17.5zm8.6-121.7c7.4 0 11.5-5 12.6-12.2 1-7-2.6-12.2-9.4-12.2-7.4 0-11.5 5.2-12.6 12.2-1.1 7.2 2.5 12.2 9.4 12.2zm9.7 121.7H259L280.5 0H263l-21.4 151.2zm66.9 1.8c17.3 0 30.6-11.5 36.3-31.5l-16-2.3c-3.8 11.7-10.1 17.6-18.7 17.6-14.1 0-14.3-17.3-12.1-36h50.4c5.4-38.3.6-61.2-25.7-61.2-25.4 0-37.1 22.9-41.2 56s-.4 57.4 27 57.4zm12.8-97.2c10.8 0 12.6 12.9 11 30.2h-31.9c4-19.8 10.7-30.2 20.9-30.2zm74.7 90.7 37.5-105.1h-18l-22 67.7-7 21.6c-.2-7.2-.6-14.4-1.1-21.6l-4.9-67.7h-17.8l11.9 115c-3.3 9.6-9.6 16.4-16.6 16.4-4.3-.1-8.5-.9-12.6-2.2l-2.5 15.5c5.3 2 10.8 2.9 16.4 2.9 19.1 0 25.7-11.9 36.7-42.5zm101.2-10.3c-11.2 0-17.8-9.3-18.1-24l-17.3.9c-.8 24.1 12.2 39.8 33.8 39.8 19.1 0 34.6-13 38.7-32.1 8.8-42.1-43-55.2-36-86.9 1.8-8 7.9-13 15.8-13 10.1 0 15.1 7.8 14.4 20.2l17.1-.9C547.4 17.9 535.4 4 514.5 4c-17.1 0-30.3 9.9-34.6 26-11.2 42.5 43.4 56 35.1 89.3-2.5 10.1-9.7 16.9-17.8 16.9zm94.5 15h16.6l15.5-109.8h-17.5l-1.3 9.4c-3.6-7.2-9.6-11-17.5-11-17.5 0-31.9 17.3-36.9 53.8-6.1 43.7 5.4 59.4 22.7 59.4 7.2 0 13.9-4.5 19.3-11.7l-.9 9.9zM578 136.8c-12.4 0-12.6-18-9.5-41.1 2.9-21.6 9.4-39.6 20.7-39.6 8.1 0 12.6 7.7 12.4 18.7l-5.8 40.1c-2.9 11.1-9 21.9-17.8 21.9zm50 14.4h17.5l10.8-76.1c2.7-11.4 8.7-19.3 16.4-19.3 7.9 0 11 6.5 9.2 19.1l-11 76.3h17.6L699.7 72c3.4-23.9-6.8-32.4-19.8-32.4-7 0-14.8 3.4-20.7 12.4l.9-10.6h-16.4L628 151.2zM733.7 137c-7 0-13.2-5.2-13.8-14.7l-16.4.7c0 20.6 13.7 30.1 28.6 30.1 14.2 0 28.8-8.5 31.7-26.3 5.4-32.1-33.6-42.5-30.2-61.6 1.5-7.8 6.2-10.1 11.2-10.1 6.2 0 11.6 4.5 11.2 14.8h15.5c1.7-21.2-12.2-30.2-26.6-30.2-12.8 0-25.6 6.5-28.8 21.8-7.2 32.7 34 40.3 29.7 64.2-1.3 8.1-6.7 11.3-12.1 11.3zM205.4 376.2l10.4-96.6c5.7-7.2 11-14.6 16-22l-11.7-9.9c-12.3 18.4-25.6 35.6-43.4 51.3l10.4 11.7c3.8-3.6 7.4-7.2 11-10.8l-8.3 76.3h15.6zm-21.5-124.9 10.8 11.2c15.7-14.9 29.4-31.8 40.7-50.2l-12.4-9.2c-10.8 17.8-23.1 33.6-39.1 48.2zm61.5 96.1-14.4 1.8c.9 13.7 9.2 27.7 25.9 27.7 17.5 0 27-12.7 29-32l2.1-21.6h15.8l1.3-13h-15.8l1.4-13.9h13l1.3-13.5h-75.7l-1.3 13.5h47.5l-1.3 13.9h-52.4l-1.3 13h11.4c2.2 6.6 4.4 13.7 5.8 20.3l14-4.1c-1.3-5.4-2.9-10.8-4.7-16.2h25.8l-2 19.8c-1.5 13.7-6.2 19.1-13.9 19.1-7 0-10.8-6.2-11.5-14.8zm61.9-127c.9-7.2-2.9-12.8-11.7-12.8h-51.7l-6.7 63.7h64.6l5.5-50.9zM253 257.3l1.3-11.7h35.8l-1.1 11.7h-36zm38.5-24.5h-35.8l1.1-11.2h36l-1.3 11.2zm27.4 131.5 13.7 7.5c6.9-11.6 12.2-24.2 16-37.2l-14.4-4.7c-3.5 12.1-8.6 23.7-15.3 34.4zM455 255.8l1.4-14.4h-30.2c1.5-4.2 2.8-8.5 3.8-12.8h18.4l1.4-14h-45l1.4-12.6H390l-1.6 12.6h-44.6l-1.4 14H361c.2 4.3.7 8.5 1.1 12.8h-31l-1.4 14.4H455zm-105 8.3-7.1 61.3h36.9l-7.2 5c5.9 6.3 10.9 13.3 14.9 20.9l12.1-8.5c-3.8-6.2-8.2-12.1-13-17.5h41.8l5.2-47.2c1-9-3.5-14-13-14H350zm70.7 85.3-14.8-4.2c-2.7 11.9-10.2 17.8-21.4 17.8-12.8 0-19.5-8.8-17.5-27.7h-15c-3.3 28.6 10.1 42.5 32.2 42.5 20.1 0 32-11.5 36.5-28.4zM360 311.2l1.3-11h54.3l-1.3 11H360zm2.5-23 1.3-10.4h54.1l-1.1 10.4h-54.3zm46.9-46.8h-31.3c-.4-4.3-.7-8.5-1.1-12.8h36.4c-1.1 4.4-2.4 8.6-4 12.8zm22.1 131 14.7-5.8c-3.2-12.5-7.5-24.7-12.8-36.5l-14.4 5.8c5.3 11.7 9.5 23.9 12.5 36.5zm31-2.5 13.6 8.4c8.3-11.9 13.9-25 18.2-36.7l-14-5.4c-4.3 12-10.3 23.4-17.8 33.7zm124-41.6 1.5-14.8h-51l1.4-12.8H583l1.4-14.9h-44.6l1.4-13.3h43.4l5.6-50.8c.9-8.1-2.5-13.9-12.6-13.9h-85.3l-6.8 64.6h41.4l-1.4 13.3h-42.1l-1.6 14.9h42.3l-1.4 12.8h-48.1l-1.6 14.9h113.5zm-85-71.1 3.6-34.4h27l-3.6 34.4h-27zm4.5 117.6 15.6-2c-.4-10.9-1.4-21.7-3.1-32.4l-14.8 1.6c1.6 10.9 2.3 21.8 2.3 32.8zm8.1-121.2 11.9-3.8c-2.2-7.8-4-15.6-5.4-23.6l-12.1 2.7c1.3 7.2 3.1 17.3 5.6 24.7zm24.7 121.5 14.4-4c-1.9-10.9-4.7-21.6-8.3-32l-14 3.8c3.4 10.5 6.1 21.3 7.9 32.2zm4.2-117.9 3.5-34.4h29l-3.8 34.4H543zm4.4-8.3 11.4 5.3c4.5-7.7 8.1-15.8 10.8-24.3l-11.6-3.7c-2.7 7.9-6.3 15.5-10.6 22.7zM586 371.5c-3.2-12-7.5-23.7-12.8-34.9l-13.5 5.6c5.3 11.2 9.5 22.9 12.6 34.9l13.7-5.6zM358.9 497.8l-12.1-11.3c-11.9 11.7-22 25.9-22 41.6 0 23.4 20.2 32 45 32 24.3 0 53.3-8.2 73.1-19.4l-6.3-15.7c-17 9.3-46.3 18.3-67.9 18.3-14.7 0-25.7-4.4-25.7-16.6 0-9.5 6.1-18.5 15.9-28.9zm11.4-73.3c0-9.2-7.5-16.7-16.7-16.7s-16.7 7.5-16.7 16.7 7.5 16.7 16.7 16.7c9.3 0 16.7-7.5 16.7-16.7zm54.6-18.5c-18.4 0-25.2 14.4-28.4 33.9l14.8 2.7c2.7-14.8 6.3-22 14-22 5.6 0 9.9 4.5 13.7 15.8l12.4-5.7c-5.1-16.4-14.4-24.7-26.5-24.7z"/></svg>