<svg xmlns="http://www.w3.org/2000/svg" viewBox="0 0 771.6 560"><path d="M35.5 136.2c8.1 0 15.3-6.8 17.8-16.9C61.6 86 7.1 72.5 18.2 30.1 22.5 13.9 35.7 4 52.8 4c20.9 0 32.9 13.8 31.1 36.1l-17.1.9c.7-12.4-4.3-20.2-14.4-20.2-7.9 0-14 5-15.8 13-7 31.7 44.8 44.8 36 86.9C68.4 140 53 153 33.9 153 12.3 153-.7 137.3 0 113.2l17.3-.9c.4 14.6 7 23.9 18.2 23.9zm47.2 15L98.3 41.4h16.4l-.9 10.6c5.9-9 13.7-12.4 20.7-12.4 9.5 0 17.6 4.5 19.8 16.6 6.3-12 15.1-16.5 23.2-16.5 13 0 23.2 8.5 19.8 32.4l-11.2 79.2h-17.6l11-76.3c1.8-12.6-1.3-19.1-9.2-19.1s-14 8.3-16.6 20l-10.6 75.4h-17.7l11-76.3c1.8-12.6-1.3-19.1-9.2-19.1-7.7 0-13.7 7.9-16.4 19.3L100 151.3l-17.3-.1zm123.1 0 15.5-109.8h17.5l-15.5 109.8h-17.5zm16.7-133.9c1.1-7 5.2-12.2 12.6-12.2 6.8 0 10.4 5.2 9.4 12.2-1.1 7.2-5.2 12.2-12.6 12.2-6.9 0-10.5-5-9.4-12.2zm19.1 133.9L263 0h17.5L259 151.2h-17.4zm66.9 1.8c-27.4 0-31.1-24.3-27-57.4s15.8-56 41.2-56c26.3 0 31.1 22.9 25.7 61.2H298c-2.2 18.7-2 36 12.1 36 8.6 0 14.9-5.9 18.7-17.6l16 2.3c-5.7 20-19 31.5-36.3 31.5zm-8.1-67h31.9c1.6-17.3-.2-30.2-11-30.2-10.2 0-16.9 10.4-20.9 30.2zm58.9 103c-5.6 0-11.1-.9-16.4-2.9l2.5-15.5c4.1 1.3 8.3 2.1 12.6 2.2 7 0 13.3-6.8 16.6-16.4l-11.9-115h17.8l4.9 67.7c.5 7.2.9 14.4 1.1 21.6l7-21.6 22-67.7h18L396 146.5c-11 30.6-17.6 42.5-36.7 42.5zm137.9-52.8c8.1 0 15.3-6.8 17.8-16.9 8.3-33.3-46.3-46.8-35.1-89.3 4.3-16.1 17.5-26 34.6-26 20.9 0 32.9 13.9 31.1 36.2l-17.1.9c.7-12.4-4.3-20.2-14.4-20.2-7.9 0-14 5-15.8 13-7 31.7 44.8 44.8 36 86.9-4.1 19.1-19.6 32.1-38.7 32.1-21.6 0-34.6-15.7-33.8-39.8l17.3-.9c.3 14.7 6.9 24 18.1 24zm94.5 15 .9-9.9c-5.4 7.2-12.1 11.7-19.3 11.7-17.3 0-28.8-15.7-22.7-59.4 5-36.5 19.4-53.8 36.9-53.8 7.9 0 13.9 3.8 17.5 11l1.3-9.4h17.5l-15.5 109.8h-16.6zM578 136.8c8.8 0 14.9-10.8 17.8-21.9l5.8-40.1c.2-11-4.3-18.7-12.4-18.7-11.3 0-17.8 18-20.7 39.6-3.1 23.1-2.9 41.1 9.5 41.1zm50 14.4 15.7-109.8h16.4l-.9 10.6c5.9-9 13.7-12.4 20.7-12.4 13 0 23.2 8.5 19.8 32.4l-11.2 79.2h-17.6l11-76.3c1.8-12.6-1.3-19.1-9.2-19.1-7.7 0-13.7 7.9-16.4 19.3l-10.8 76.1H628zM733.7 137c5.4 0 10.8-3.2 12.1-11.3 4.3-23.9-36.9-31.5-29.7-64.2 3.2-15.3 16-21.8 28.8-21.8 14.4 0 28.3 9 26.6 30.2H756c.4-10.3-5-14.8-11.2-14.8-5 0-9.7 2.3-11.2 10.1-3.4 19.1 35.6 29.5 30.2 61.6-2.9 17.8-17.5 26.3-31.7 26.3-14.9 0-28.6-9.5-28.6-30.1l16.4-.7c.6 9.5 6.8 14.7 13.8 14.7zM189.8 376.2l8.3-76.3c-3.6 3.6-7.2 7.2-11 10.8L176.7 299c17.8-15.7 31.1-32.9 43.4-51.3l11.7 9.9c-5 7.4-10.3 14.8-16 22l-10.4 96.6h-15.6zm-5.9-124.9c16-14.6 28.3-30.4 39.1-48.2l12.4 9.2c-11.3 18.4-25 35.3-40.7 50.2l-10.8-11.2zm61.5 96.1c.7 8.6 4.5 14.8 11.5 14.8 7.7 0 12.4-5.4 13.9-19.1l2-19.8H247c1.8 5.4 3.4 10.8 4.7 16.2l-14 4.1c-1.4-6.6-3.6-13.7-5.8-20.3h-11.4l1.3-13h52.4l1.3-13.9H228l1.3-13.5H305l-1.3 13.5h-13l-1.4 13.9h15.8l-1.3 13H288l-2.1 21.6c-2 19.3-11.5 32-29 32-16.7 0-25-14-25.9-27.7l14.4-1.8zm56.4-76.1h-64.6l6.7-63.7h51.7c8.8 0 12.6 5.6 11.7 12.8l-5.5 50.9zm-12.8-14 1.1-11.7h-35.8l-1.3 11.7h36zm2.5-24.5 1.3-11.2h-36l-1.1 11.2h35.8zm27.4 131.5c6.7-10.7 11.8-22.3 15.3-34.4l14.4 4.7c-3.8 13-9.1 25.6-16 37.2l-13.7-7.5zM455 255.8H329.7l1.4-14.4h31c-.4-4.3-.9-8.5-1.1-12.8h-18.6l1.4-14h44.6L390 202h16.2l-1.4 12.6h45l-1.4 14H430c-1 4.3-2.3 8.6-3.8 12.8h30.2l-1.4 14.4zm-105 8.3h70.6c9.5 0 14 5 13 14l-5.2 47.2h-41.8c4.8 5.4 9.2 11.3 13 17.5l-12.1 8.5c-4-7.6-9-14.6-14.9-20.9l7.2-5h-36.9l7.1-61.3zm70.7 85.3c-4.5 16.9-16.4 28.4-36.5 28.4-22.1 0-35.5-13.9-32.2-42.5h15c-2 18.9 4.7 27.7 17.5 27.7 11.2 0 18.7-5.9 21.4-17.8l14.8 4.2zm-6.4-38.2 1.3-11h-54.3l-1.3 11h54.3zm2.5-23 1.1-10.4h-54.1l-1.3 10.4h54.3zm-7.4-46.8c1.6-4.2 2.9-8.4 4-12.8H377c.4 4.3.7 8.5 1.1 12.8h31.3zm22.1 131c-3-12.6-7.2-24.8-12.5-36.5l14.4-5.8c5.3 11.8 9.6 24 12.8 36.5l-14.7 5.8zm31-2.5c7.5-10.3 13.5-21.7 17.8-33.7l14 5.4c-4.3 11.7-9.9 24.8-18.2 36.7l-13.6-8.4zm124-41.6H473l1.6-14.9h48.1l1.4-12.8h-42.3l1.6-14.9h42.1l1.4-13.3h-41.4l6.8-64.6h85.3c10.1 0 13.5 5.8 12.6 13.9l-5.6 50.8h-43.4l-1.4 13.3h44.6l-1.4 14.9h-44.6l-1.4 12.8h51l-1.5 14.8zm-58-71.1 3.6-34.4h-27l-3.6 34.4h27zM506 374.8c0-11-.7-21.9-2.3-32.8l14.8-1.6c1.7 10.7 2.7 21.5 3.1 32.4l-15.6 2zm8.1-121.2c-2.5-7.4-4.3-17.5-5.6-24.7l12.1-2.7c1.4 8 3.2 15.8 5.4 23.6l-11.9 3.8zm24.7 121.5c-1.8-10.9-4.5-21.7-7.9-32.2l14-3.8c3.6 10.4 6.4 21.1 8.3 32l-14.4 4zm32.9-117.9 3.8-34.4h-29l-3.5 34.4h28.7zm-24.3-8.3c4.3-7.2 7.9-14.8 10.6-22.7l11.6 3.7c-2.7 8.5-6.3 16.6-10.8 24.3l-11.4-5.3zm24.9 128.2c-3.1-12-7.3-23.7-12.6-34.9l13.5-5.6c5.3 11.2 9.6 22.9 12.8 34.9l-13.7 5.6zM343 526.7c0 12.2 11 16.6 25.7 16.6 21.6 0 50.9-9 67.9-18.3l6.3 15.7c-19.8 11.2-48.8 19.4-73.1 19.4-24.8 0-45-8.6-45-32 0-15.7 10.1-29.9 22-41.6l12.1 11.3c-9.8 10.4-15.9 19.4-15.9 28.9zm10.6-85.5c-9.2 0-16.7-7.5-16.7-16.7s7.5-16.7 16.7-16.7 16.7 7.5 16.7 16.7-7.4 16.7-16.7 16.7zm71.3-35.2c12.1 0 21.4 8.3 26.5 24.7l-12.4 5.7c-3.8-11.3-8.1-15.8-13.7-15.8-7.7 0-11.3 7.2-14 22l-14.8-2.7c3.2-19.5 10-33.9 28.4-33.9z"/></svg>