<svg xmlns="http://www.w3.org/2000/svg" viewBox="0 0 1280 720"><path d="m271.3 178 13 11c-5.6 8.2-11.4 16.4-17.8 24.4l-11.6 107.4h-17.2l9.2-84.8c-4 4-8 8-12.2 12l-11.6-13c19.8-17.4 34.6-36.6 48.2-57zm3.2-49.6 13.8 10.2c-12.6 20.2-26.6 38-45.2 55.8l-12-12.4c17.8-16.2 31.4-33.8 43.4-53.6zm-1.2 119.2h58.2l1.4-15.4h-52.8l1.4-15h84.2l-1.4 15h-14.4l-1.6 15.4h17.6l-1.4 14.4h-17.6l-2.4 24c-2.2 21.4-12.8 35.6-32.2 35.6s-27.8-15.6-28.8-30.8l16-2c.8 9.6 5 16.4 12.8 16.4 8.6 0 13.8-6 15.4-21.2l2.2-22h-28.6c2 6 3.8 12 5.2 18l-15.6 4.6c-1.6-7.4-4-15.2-6.4-22.6h-12.6l1.4-14.4zm24.4-114.2h57.4c9.8 0 14 6.2 13 14.2l-6 56.6h-71.8l7.4-70.8zm50.2 55.2 1.2-13h-39.8l-1.4 13h40zm2.8-27.2 1.4-12.4h-40l-1.2 12.4h39.8zm47.4 108 16 5.2c-4 14.2-10.2 28.4-17.8 41.4l-15.2-8.4c7.6-12.2 13.2-25 17-38.2zm126.8-112.6h-20.4c-1.2 5-2.6 9.6-4.2 14.2h33.6l-1.6 16H393.1l1.6-16h34.4c-.4-4.8-1-9.6-1.2-14.2h-20.6l1.6-15.6h49.6l1.6-14h18l-1.6 14h50l-1.6 15.6zm-109.2 39.4h78.4c10.6 0 15.6 5.6 14.4 15.6l-5.8 52.4h-46.4c5.2 5.8 10 12.4 14.4 19.4l-13.4 9.4c-5-9.2-10.2-16.6-16.6-23.2l8-5.6h-41l8-68zm18.8 79.2c-2.2 21 5.2 30.8 19.4 30.8 12.4 0 20.8-6.6 23.8-19.8l16.6 4.6c-5 18.8-18.2 31.6-40.6 31.6-24.6 0-39.4-15.4-35.8-47.2h16.6zm52.6-26.8 1.4-12.2h-60.4l-1.4 12.2h60.4zm2.8-25.6 1.2-11.6h-60.2l-1.4 11.6h60.4zm-43-52h34.8c1.8-4.8 3.2-9.4 4.4-14.2h-40.4l1.2 14.2zm61.4 98.6c5.4 12 10.6 26.2 14.2 40.6l-16.2 6.4c-3.4-14.4-8.2-28-14-40.6l16-6.4zm52.2 6.8 15.6 6c-4.8 13-11 27.6-20.2 40.8l-15.2-9.4c9-12.4 15.2-25 19.8-37.4zm-6.4-25.4h53.4l1.6-14.2h-47l1.8-16.6h46.8l1.6-14.8h-46l7.6-71.8h94.8c11.2 0 15 6.4 14 15.4l-6.2 56.4h-48.2l-1.6 14.8h49.6l-1.6 16.6h-49.6l-1.6 14.2h56.6l-1.6 16.6H552.3l1.8-16.6zm60-62.4 4-38.2h-30l-4 38.2h30zM602.9 281c1.8 12 3 23.8 3.4 36l-17.2 2.2c0-12-.8-24.2-2.6-36.4l16.4-1.8zm2.4-126.8c1.4 8.4 3.6 18 6 26.2l-13.2 4.2c-2.8-8.2-4.8-19.4-6.2-27.4l13.4-3zm27 125.4c3.8 11.2 7 23 9.2 35.6l-16 4.4c-2-12.6-5.2-24.4-8.8-35.8l15.6-4.2zm29.8-91 4.2-38.2h-32.2l-4 38.2h32zm-15.2-34.4 12.8 4.2c-2.6 8.6-7.2 19-12 27l-12.6-6c4.8-8.2 8.8-16.4 11.8-25.2zm16.8 122.6c5.4 11.2 10.2 24.4 14.2 38.8l-15.2 6.2c-3.6-14.4-8.6-27.2-14-38.8l15-6.2zm102.2 4.6c0 13.6 12.2 18.4 28.6 18.4 24 0 56.6-10 75.4-20.4l7 17.4c-22 12.4-54.2 21.6-81.2 21.6s-50-9.6-50-35.6c0-17.4 11.2-33.2 24.4-46.2l13.4 12.6c-10.8 11.6-17.6 21.6-17.6 32.2zm11.8-132.2c10.2 0 18.6 8.4 18.6 18.6s-8.4 18.6-18.6 18.6-18.6-8.4-18.6-18.6 8.4-18.6 18.6-18.6zm79.2-2c13.4 0 23.8 9.2 29.4 27.4l-13.8 6.4c-4.2-12.6-9-17.6-15.2-17.6-8.6 0-12.6 8-15.6 24.4l-16.4-3c3.6-21.6 11.2-37.6 31.6-37.6zm-602 387c9 0 17-7.6 19.8-18.8 9.2-37-51.4-52-39-99.2 4.8-18 19.4-29 38.4-29 23.2 0 36.6 15.4 34.6 40.2l-19 1c.8-13.8-4.8-22.4-16-22.4-8.8 0-15.6 5.6-17.6 14.4-7.8 35.2 49.8 49.8 40 96.6-4.6 21.4-21.8 35.8-43 35.8-24 0-38.4-17.4-37.6-44.2l19.2-1c.4 16.2 7.8 26.6 20.2 26.6zm52.4 16.6 17.4-122h18.2l-1 11.8c6.6-10 15.2-13.8 23-13.8 10.6 0 19.6 5 22 18.4 7-13.4 16.8-18.4 25.8-18.4 14.4 0 25.8 9.4 22 36l-12.4 88h-19.6l12.2-84.8c2-14-1.4-21.2-10.2-21.2s-15.6 9.2-18.4 22.2l-11.8 83.8h-19.6l12.2-84.8c2-14-1.4-21.2-10.2-21.2s-15.2 8.8-18.2 21.4l-12 84.6h-19.4zm136.8 0 17.2-122h19.4l-17.2 122h-19.4zm32.8-162.4c7.6 0 11.6 5.8 10.4 13.6-1.2 8-5.8 13.6-14 13.6-7.6 0-11.6-5.6-10.4-13.6 1.2-7.8 5.8-13.6 14-13.6zm7 162.4 23.8-168h19.4l-23.8 168h-19.4zm90.2-124c29.2 0 34.6 25.4 28.6 68h-56c-2.4 20.8-2.2 40 13.4 40 9.6 0 16.6-6.6 20.8-19.6l17.8 2.6c-6.4 22.2-21.2 35-40.4 35-30.4 0-34.6-27-30-63.8s17.6-62.2 45.8-62.2zm10.6 51.6c1.8-19.2-.2-33.6-12.2-33.6s-18.8 11.6-23.2 33.6h35.4zm14.6 94c4.8 1.4 9.2 2.4 14 2.4 7.8 0 14.8-7.6 18.4-18.2l-13.2-127.8h19.8l5.4 75.2c.6 8 1 16 1.2 24l7.8-24 24.4-75.2h20l-41.6 116.8c-12.2 34-19.6 47.2-40.8 47.2-5.8 0-11.6-.8-18.2-3.2l2.8-17.2zm168.6-38.2c9 0 17-7.6 19.8-18.8 9.2-37-51.4-52-39-99.2 4.8-18 19.4-29 38.4-29 23.2 0 36.6 15.4 34.6 40.2l-19 1c.8-13.8-4.8-22.4-16-22.4-8.8 0-15.6 5.6-17.6 14.4-7.8 35.2 49.8 49.8 40 96.6-4.6 21.4-21.8 35.8-43 35.8-24 0-38.4-17.4-37.6-44.2l19.2-1c.4 16.2 7.8 26.6 20.2 26.6zm105 16.6 1-11c-6 8-13.4 13-21.4 13-19.2 0-32-17.4-25.2-66 5.6-40.6 21.6-59.8 41-59.8 8.8 0 15.4 4.2 19.4 12.2l1.4-10.4h19.4l-17.2 122h-18.4zm-15.2-16c9.8 0 16.6-12 19.8-24.4l6.4-44.6c.2-12.4-5-20.8-13.8-20.8-12.6 0-19.8 20-23 44-3.4 25.8-3.2 45.8 10.6 45.8zm55.6 16 17.4-122h18.2l-1 11.8c6.6-10 15.2-13.8 23-13.8 14.4 0 25.8 9.4 22 36l-12.4 88h-19.6l12.2-84.8c2-14-1.4-21.2-10.2-21.2s-15.2 8.8-18.2 21.4l-12 84.6h-19.4zm117.4-15.8c6 0 12-3.6 13.4-12.6 4.8-26.6-41-35-33-71.4 3.6-17 17.8-24.2 32-24.2 16 0 31.4 10 29.6 33.6h-17.2c.4-11.4-5.6-16.4-12.4-16.4-5.6 0-10.8 2.6-12.4 11.2-3.8 21.2 39.6 32.8 33.6 68.4-3.2 19.8-19.4 29.2-35.2 29.2-16.6 0-31.8-10.6-31.8-33.4l18.2-.8c.6 10.6 7.4 16.4 15.2 16.4z" style="fill:#0f0f0f"/></svg>